<?xml version="1.0" encoding="UTF-8"?>
<svg id="Calque_2" data-name="Calque 2" xmlns="http://www.w3.org/2000/svg" xmlns:xlink="http://www.w3.org/1999/xlink" viewBox="0 0 733.03 309.41">
  <defs>
    <style>
      .cls-1 {
        fill: url(#Dégradé_sans_nom_3-3);
      }

      .cls-2 {
        fill: url(#Dégradé_sans_nom_3-2);
      }

      .cls-3 {
        fill: url(#Dégradé_sans_nom_3);
      }
    </style>
    <linearGradient id="Dégradé_sans_nom_3" data-name="Dégradé sans nom 3" x1="-15.16" y1="158.12" x2="734.82" y2="153.32" gradientTransform="translate(0 312.06) scale(1 -1)" gradientUnits="userSpaceOnUse">
      <stop offset="0" stop-color="#edb000"/>
      <stop offset="1" stop-color="#e07200"/>
    </linearGradient>
    <linearGradient id="Dégradé_sans_nom_3-2" data-name="Dégradé sans nom 3" x1="-19.44" y1="160.06" x2="740.88" y2="155.2" xlink:href="#Dégradé_sans_nom_3"/>
    <linearGradient id="Dégradé_sans_nom_3-3" data-name="Dégradé sans nom 3" x1="-36.42" y1="161" x2="743.64" y2="156.01" xlink:href="#Dégradé_sans_nom_3"/>
  </defs>
  <g id="Calque_2-2" data-name="Calque 2">
    <g id="Calque_1-2" data-name="Calque 1-2">
      <g>
        <path class="cls-3" d="M2.8,87.88C5.73,31.02,7.86,25.58,6.36,14.71,38.82,7.41,78.47,2.84,112.56,2.04c41.22-1,74.23,7.96,93.17,24.68,17.69,15.42,26.7,36.28,25.99,60.67-.72,25.7-11.42,45.36-35.56,63.61,29.77,18.67,43.03,40.09,43.79,70.17.77,28.77-11.2,50.94-35.57,66.7-20.72,13.64-48.06,20.48-78.36,19.79-33.6-.72-99.3-10.26-119.13-17.16-.95-14.68-3.11-44.55-4.24-70.68-3.52-43.28-3.53-86.56-.03-129.83.06-.7.11-1.41.17-2.11h0ZM93.54,234.63c6.65,2.22,13.21,3.17,21.86,3.27,21.63.27,34.87-9.1,34.24-24.66-.66-16.43-16.12-26.43-41.49-26.53-5.25-.02-10.04.38-16.58.78.32,15.72.98,31.43,1.98,47.15h-.01ZM92,121.9c3.9,1.27,7.38,1.68,12.63,1.65,22.31-.09,40.03-12.25,40.7-28.24s-12.94-25.78-36.29-25.47c-6.49.08-10.41.56-14.84,1.91-1.11,16.72-1.85,33.43-2.2,50.15Z"/>
        <path class="cls-2" d="M511.09,265.43c-36.38,29.06-73.14,43.86-110.97,43.98-77.92.2-144.55-67.4-145.28-152.75-.07-43.62,17.78-82.52,48.49-111.96C333.26,16.15,370.72-.16,407.7,0c34.9.13,67.03,14.46,101.68,43.94-14.02,21.62-28.74,43.34-43.84,65.13-15.97-16.19-36.97-25.45-58.24-25.49-36.38-.06-60.9,29.31-60.95,73.08,0,24.08,6.19,42.03,18.39,54.29,11.34,11.82,27.35,18.38,42.96,18.35,21.25-.04,42.25-9.74,60.87-27.25,14.64,21.2,28.92,42.34,42.53,63.38h0Z"/>
        <path class="cls-1" d="M733.02,86.28c-7.93-1.38-28.87-2.95-35.82-3.05-22.12-.17-44.25-.3-66.38-.4.6,14.01.94,28.03,1.02,42.04,15.74.07,31.48.15,47.22.23,10.94.48,40.16-1.47,47.52-3.1.9,25.73.56,51.46-1,77.19-9.09-1.18-25.18-2.31-36.1-2.23-19.5.3-39.01.58-58.51.85-1.08,20.74-2.73,41.49-4.93,62.24-1.38,15.02-2.18,29.17-2.43,37.73-30.6.69-61.2,1.26-91.79,1.71,1.34-5.66,4.76-29.12,5.28-38.67,4.6-69.31,5.14-138.61,1.55-207.9-.92-15.62-3.11-28.22-7.25-43.03,61.62.9,123.24,2.29,184.86,4.18,6.6,24.11,12.22,48.18,16.77,72.21h-.01Z"/>
      </g>
    </g>
  </g>
</svg>