<?xml version="1.0" encoding="UTF-8"?>
<svg id="Calque_2" data-name="Calque 2" xmlns="http://www.w3.org/2000/svg" xmlns:xlink="http://www.w3.org/1999/xlink" viewBox="0 0 1291.04 148.15">
  <defs>
    <style>
      .cls-1 {
        fill: url(#Dégradé_sans_nom_7-5);
      }

      .cls-2 {
        fill: url(#Dégradé_sans_nom_7-6);
      }

      .cls-3 {
        fill: url(#Dégradé_sans_nom_7);
      }

      .cls-4 {
        fill: url(#Dégradé_sans_nom_7-7);
      }

      .cls-5 {
        fill: url(#Dégradé_sans_nom_7-14);
      }

      .cls-6 {
        fill: url(#Dégradé_sans_nom_7-10);
      }

      .cls-7 {
        fill: url(#Dégradé_sans_nom_7-2);
      }

      .cls-8 {
        fill: url(#Dégradé_sans_nom_7-8);
      }

      .cls-9 {
        fill: url(#Dégradé_sans_nom_7-17);
      }

      .cls-10 {
        fill: url(#Dégradé_sans_nom_7-15);
      }

      .cls-11 {
        fill: url(#Dégradé_sans_nom_7-16);
      }

      .cls-12 {
        fill: url(#Dégradé_sans_nom_7-4);
      }

      .cls-13 {
        fill: url(#Dégradé_sans_nom_7-12);
      }

      .cls-14 {
        fill: url(#Dégradé_sans_nom_7-13);
      }

      .cls-15 {
        fill: url(#Dégradé_sans_nom_7-11);
      }

      .cls-16 {
        fill: url(#Dégradé_sans_nom_7-3);
      }

      .cls-17 {
        fill: url(#Dégradé_sans_nom_7-9);
      }
    </style>
    <linearGradient id="Dégradé_sans_nom_7" data-name="Dégradé sans nom 7" x1="-25.16" y1="60.71" x2="1289.64" y2="63.82" gradientUnits="userSpaceOnUse">
      <stop offset="0" stop-color="#edb000"/>
      <stop offset="1" stop-color="#e07200"/>
    </linearGradient>
    <linearGradient id="Dégradé_sans_nom_7-2" data-name="Dégradé sans nom 7" x1="-28.1" y1="75.99" x2="1320.69" y2="79.17" xlink:href="#Dégradé_sans_nom_7"/>
    <linearGradient id="Dégradé_sans_nom_7-3" data-name="Dégradé sans nom 7" x1="-30.93" y1="65.69" x2="1338.01" y2="68.92" xlink:href="#Dégradé_sans_nom_7"/>
    <linearGradient id="Dégradé_sans_nom_7-4" data-name="Dégradé sans nom 7" x1="-29.68" y1="59.96" x2="1327.11" y2="63.16" xlink:href="#Dégradé_sans_nom_7"/>
    <linearGradient id="Dégradé_sans_nom_7-5" data-name="Dégradé sans nom 7" x1="-26.79" y1="91.69" x2="1318.91" y2="94.87" xlink:href="#Dégradé_sans_nom_7"/>
    <linearGradient id="Dégradé_sans_nom_7-6" data-name="Dégradé sans nom 7" x1="-29.91" y1="75.51" x2="1324.17" y2="78.7" xlink:href="#Dégradé_sans_nom_7"/>
    <linearGradient id="Dégradé_sans_nom_7-7" data-name="Dégradé sans nom 7" x1="-37.82" y1="56.17" x2="1336.69" y2="59.42" xlink:href="#Dégradé_sans_nom_7"/>
    <linearGradient id="Dégradé_sans_nom_7-8" data-name="Dégradé sans nom 7" x1="-20.43" y1="55.9" x2="1311.65" y2="59.05" xlink:href="#Dégradé_sans_nom_7"/>
    <linearGradient id="Dégradé_sans_nom_7-9" data-name="Dégradé sans nom 7" x1="-27.03" y1="74.24" x2="1319.55" y2="77.42" xlink:href="#Dégradé_sans_nom_7"/>
    <linearGradient id="Dégradé_sans_nom_7-10" data-name="Dégradé sans nom 7" x1="-26.89" y1="90.98" x2="1319.47" y2="94.16" xlink:href="#Dégradé_sans_nom_7"/>
    <linearGradient id="Dégradé_sans_nom_7-11" data-name="Dégradé sans nom 7" x1="-35.69" y1="58.73" x2="1323.65" y2="61.94" xlink:href="#Dégradé_sans_nom_7"/>
    <linearGradient id="Dégradé_sans_nom_7-12" data-name="Dégradé sans nom 7" x1="-23.69" y1="73.73" x2="1317.99" y2="76.9" xlink:href="#Dégradé_sans_nom_7"/>
    <linearGradient id="Dégradé_sans_nom_7-13" data-name="Dégradé sans nom 7" x1="-58.88" y1="54.94" x2="1330.94" y2="58.22" xlink:href="#Dégradé_sans_nom_7"/>
    <linearGradient id="Dégradé_sans_nom_7-14" data-name="Dégradé sans nom 7" x1="-28.07" y1="73.91" x2="1320.65" y2="77.1" xlink:href="#Dégradé_sans_nom_7"/>
    <linearGradient id="Dégradé_sans_nom_7-15" data-name="Dégradé sans nom 7" x1="-29.91" y1="73.14" x2="1320.49" y2="76.32" xlink:href="#Dégradé_sans_nom_7"/>
    <linearGradient id="Dégradé_sans_nom_7-16" data-name="Dégradé sans nom 7" x1="-18.39" y1="54.85" x2="1319.23" y2="58.01" xlink:href="#Dégradé_sans_nom_7"/>
    <linearGradient id="Dégradé_sans_nom_7-17" data-name="Dégradé sans nom 7" x1="-28.86" y1="73.3" x2="1319.73" y2="76.49" xlink:href="#Dégradé_sans_nom_7"/>
  </defs>
  <g id="Calque_1-2" data-name="Calque 1">
    <g>
      <path class="cls-3" d="M-2.53,35.97C-1.39,14.77-.82,12.72-1.42,8.64c12.02-2.38,26.84-3.67,39.58-3.69,15.42-.03,27.62,3.41,34.27,9.54,6.24,5.66,9.06,13.21,8.39,22.03-.7,9.29-4.82,16.38-13.75,23,10.59,6.77,15.22,14.48,15.45,25.35.23,10.4-4.05,18.43-13.13,24.24-7.71,5.03-18.04,7.69-29.43,7.68-12.65-.02-37.12-2.88-44.3-5.24.12-5.5.14-16.65.24-26.39-.42-16.13.08-32.26,1.49-48.39.02-.26.05-.52.07-.79ZM28.9,90.2c2.41.79,4.8,1.1,7.97,1.1,7.93,0,12.86-3.46,12.76-9.12-.1-5.98-5.62-9.6-14.82-9.6-1.9,0-3.65.16-6.03.31-.07,5.77-.03,11.53.13,17.3ZM29.64,48.83c1.4.47,2.66.63,4.56.63,8.09,0,14.64-4.42,15.08-10.24.44-5.82-4.41-9.44-12.95-9.42-2.37,0-3.81.16-5.44.64-.54,6.13-.96,12.27-1.25,18.4Z"/>
      <path class="cls-7" d="M117.74,85.19c1.73,6.46,8.74,10.72,17.46,10.73,6.18,0,12.93-1.73,19.49-4.88,2.45,5.84,4.98,11.68,7.6,17.52-7.93,5.04-20.01,8.19-31.4,8.17-25.05-.03-43.22-15.8-43.41-39.9-.11-23.78,18.3-40.81,41.64-40.84,23.15-.02,36.8,16.22,36.9,41.16-.04,2.68-.06,5.37-.06,8.05-16.08,0-32.15,0-48.23-.01ZM129.88,67.53c.11,0,.21,0,.32,0,.37,0,.74,0,1.11,0,5.71,0,7.14-.79,7.2-3.63.1-5.52-4.18-9.62-10.2-9.62-7.13,0-11.78,4.74-11.89,12.3,0,.21,0,.42,0,.63,4.49.1,8.99.21,13.48.31Z"/>
      <path class="cls-16" d="M208.22,42.4c4.91,0,9.82,0,14.73,0-.53,8.8-.88,17.59-1.05,26.39-5.29-.05-10.58-.1-15.87-.16-.14,4.32-.24,8.64-.3,12.95,0,.16,0,.32,0,.47,0,.53.01,1.05.02,1.58.07,4.74,2.05,6.95,6.17,6.95,2.54,0,6.32-.95,8.83-2.21,1.69,7.06,3.48,14.12,5.39,21.18-7.52,4.42-14.49,6.47-22.24,6.46-9.96,0-18.95-3.96-23.09-10.28-1.72-2.68-2.75-7.11-2.95-14.05-.23-7.68-.3-15.37-.23-23.05-3.12-.05-6.24-.1-9.36-.16.08-8.73.36-17.47.84-26.2,3.22,0,6.44,0,9.66,0,.35-4.58.75-9.16,1.2-13.73.05-.68.11-1.37.16-2.05.21-2.53.18-2.53.24-9.95,9.88-.01,19.77-.02,29.65-.04-.78,8.64-1.38,17.27-1.81,25.91Z"/>
      <path class="cls-12" d="M355.21,101.08c-12.54,10.45-25.84,15.66-40.08,15.65-29.64-.02-54.65-24.24-54.12-55.22.27-15.81,7.08-29.89,18.87-40.5,11.46-10.29,26-16.16,39.83-16.18,13.07-.01,24.42,5.04,35.97,15.64-6.02,7.92-11.96,15.84-17.82,23.76-5.51-5.86-12.94-9.17-20.7-9.17-13.27,0-22.74,10.62-23.01,26.44-.13,8.7,2.12,15.19,6.6,19.62,4.16,4.27,10.08,6.65,15.79,6.65,7.78,0,15.32-3.48,21.95-9.81,5.48,7.71,11.06,15.41,16.71,23.12Z"/>
      <path class="cls-1" d="M433.21,45.62c-22.43,60.55-30.76,77.66-56.64,103.14-6.56-6.71-13.08-13.42-19.56-20.13,8.59-7.6,13.09-12.66,20.21-22.8-3.37-6.76-6.69-13.52-9.94-20.28-6.37-12.51-12.99-31.04-15.28-42.12,9.99-2.06,19.99-4.13,29.98-6.19,6.65,25.98,8.95,32.32,11.9,39.13,3.73-13.26,7.69-26.51,11.86-39.77,9.14,3.01,18.3,6.02,27.47,9.02Z"/>
      <path class="cls-2" d="M488.29,66.86c-2.84-3.01-7.75-4.92-12.51-4.92-7.93,0-14.66,6.82-14.64,14.91.01,7.77,5.96,14.27,13.1,14.27,4.92,0,10.29-2.06,15.02-5.55,3.43,6.98,6.89,13.96,10.39,20.94-9.07,6.82-19.09,10.3-29.69,10.3-22.1,0-37.92-15.71-38.01-38.53-.06-23.77,17.82-41.69,40.57-41.7,8.55,0,17.98,2.69,26.14,7.61-3.5,7.56-6.96,15.12-10.37,22.68Z"/>
      <path class="cls-4" d="M537.85,1.34c-.63,4.28-2.05,32.04-2.29,44.73-.14,22.53.02,45.05.47,67.58-10.6,0-21.2,0-31.81,0,.05-.21.1-.42.15-.63.15-.63.23-4.28.31-9.83.11-6.98.26-13.96.44-20.94,0-.32,0-.63,0-.95-.01-18.08.22-36.16.69-54.24,0-.37.02-.74.03-1.11-.02-3.54-.03-7.08-.03-10.63-.03-2.64-.05-5.29-.07-7.93,0-.21.01-.42.02-.63,10.71-1.8,21.41-3.6,32.1-5.41Z"/>
      <path class="cls-8" d="M576.87,18.62c-.12,9.36-7.63,17.14-16.66,17.14-9.18,0-16.52-7.93-16.32-17.61.2-9.84,7.33-17.29,16.44-17.3,9.42,0,16.67,7.77,16.54,17.77ZM576.96,39.25c-.9,24.8-1.57,49.61-2.01,74.41-9.71,0-19.41,0-29.12,0-.56-24.8-.79-49.6-.7-74.4,10.61,0,21.22,0,31.83,0Z"/>
      <path class="cls-17" d="M634.92,113.66c.32-1.11.78-7.46.93-13.01-.06-8.73-.12-17.45-.17-26.18,0-8.09-2.85-11.74-9.36-11.74-3.17,0-6.35.63-8.25,1.75-.12,13.54-.21,27.08-.27,40.62,0,.26,0,.53,0,.79,0,1.69.01,3.38.02,5.08.06.63.11,1.27.17,1.9,0,.26,0,.53,0,.79-10.07,0-20.15,0-30.22,0,.45-3.65.59-5.24.87-12.38,0-10.05.03-20.1.09-30.15,0-7.3-1.39-18.09-3.26-23.48,13.82-6.03,31.1-9.84,43.76-9.84,14.56,0,27.23,6.35,32.64,16.03,2.54,4.44,3.66,9.84,3.5,17.61,0,9.04,0,18.09-.02,27.13,0,3.6-.01,7.19-.02,10.79,0,1.75.15,2.86.3,4.28-10.23,0-20.46,0-30.7,0Z"/>
      <path class="cls-6" d="M690.25,120.01c4.57,2.22,12.61,3.97,18.61,3.96,9.47,0,14.27-3.81,14.36-11.27,0-.63.02-1.43-.13-2.54-5.73,2.54-13.34,4.29-19.35,4.29-18.34,0-31.88-15.71-31.89-36.49.02-23.48,17.05-40.62,40.62-40.62,11.87,0,24.56,2.86,41.27,9.05-1.51,6.34-3.02,20.15-3.03,27.13,0,2.59,0,5.18,0,7.77.05,2.33.09,4.65.13,6.98,0,.48-.02,3.17.11,6.98.14,3.01.25,7.3.23,9.04-.19,16.18-3.42,25.38-10.81,32.52-7.72,7.3-18.65,11.27-31.85,11.27-10.21,0-18.5-2.22-27.59-7.14,3.1-6.98,6.21-13.96,9.32-20.95ZM723.41,64.48c-3.34-2.22-6.04-3.01-9.37-3.01-8.41,0-14.1,6.35-14.1,15.55,0,7.93,5.37,13.96,12.5,13.96,4.28,0,8.1-2.38,9.7-6.19.95-2.06,1.13-3.17,1.44-14.28-.05-1.75-.11-3.49-.17-5.24,0-.26,0-.53,0-.79Z"/>
      <path class="cls-15" d="M867.21,35.01c-2.86-.48-10.47-.96-13-.96-8.07.05-16.14.1-24.2.15.03,5.18.03,10.36,0,15.54,5.71,0,11.41,0,17.12,0,3.97.16,14.57-.63,17.25-1.26.14,9.67.17,19.34.09,29.01-3.33-.48-9.2-.95-13.17-.95-7.09.05-14.18.11-21.26.16-.12,7.66-.29,15.33-.53,22.99-.09,5.55.1,10.78.34,13.95-11.45,0-22.89,0-34.34.01.37-2.06,1.15-10.63,1.2-14.11.5-25.32.49-50.64-.04-75.96-.16-5.71-.78-10.31-2.07-15.7,22.93.01,45.87.02,68.8.04,1.36,9.03,2.63,18.07,3.8,27.1Z"/>
      <path class="cls-13" d="M899.78,38.82c.7,1.9,3.14,10.3,3.49,12.04,6.15-8.87,12.32-12.67,20.71-12.66,1.9,0,3.01.16,4.62.79-.62,10.93-1.42,21.86-2.4,32.78-1.91-1.43-4.61-2.22-7.15-2.22-4.29,0-8.87,2.53-10.62,6.02-1.91,3.33-2.71,9.19-2.88,18.22.04,6.34.03,12.67-.04,19.01,0,.26-.02.53-.03.79-9.97,0-19.94,0-29.91.01.59-3.8.86-7.29,1.18-14.74.19-6.6.32-13.21.4-19.81.06-12.2-1.86-24.72-4.91-33.28,9.19-2.32,18.37-4.64,27.53-6.96Z"/>
      <path class="cls-14" d="M963.02,18.75c.59,9.34-6.53,17.09-15.55,17.09-9.19,0-16.91-7.93-17.46-17.59-.55-9.82,5.79-17.26,14.9-17.25,9.42.01,17.48,7.77,18.11,17.75ZM964.39,39.33c.29,24.75-.47,49.49-2.26,74.24-9.71,0-19.41.01-29.12.02.79-24.76.64-49.52-.45-74.28,10.61,0,21.22.01,31.83.02Z"/>
      <path class="cls-5" d="M1001.49,85.23c1.49,6.49,8.17,10.76,16.9,10.75,6.18,0,13.06-1.74,19.79-4.91,2.13,5.85,4.19,11.7,6.17,17.55-8.49,5.06-21.02,8.24-32.4,8.24-25.17.02-40.62-15.8-40.54-40.02.08-23.9,15.92-40.99,39.36-40.97,23.03.02,39.25,16.31,39.18,41.28-.06,2.69-.14,5.37-.24,8.06-16.08,0-32.15,0-48.23,0ZM1013.76,67.51c.11,0,.21,0,.32,0,.37,0,.74,0,1.11,0,5.71,0,7.14-.79,7.1-3.64-.08-5.54-4.64-9.65-10.66-9.65-7.14,0-11.44,4.74-11.36,12.34,0,.21,0,.42,0,.63,4.5.11,8.99.21,13.49.32Z"/>
      <path class="cls-10" d="M1103.59,113.47c.39-1.11,1.26-7.42,1.65-12.95.32-8.68.46-17.37.42-26.05,0-8.05-2.97-11.68-9.46-11.69-3.17,0-6.33.63-8.22,1.74.1,13.48-.24,26.96-1,40.44-.01.26-.03.53-.04.79-.08,1.68-.18,3.37-.27,5.05.02.63.03,1.26.05,1.9-.02.26-.03.53-.05.79-10.07,0-20.15.02-30.22.02.67-3.64.94-5.22,1.55-12.33.45-10.01.68-20.02.69-30.03,0-7.27-1.7-18.02-3.83-23.39,13.56-6,30.58-9.78,43.25-9.77,14.55.01,27.65,6.34,33.39,15.96,2.69,4.42,3.96,9.78,3.84,17.52.04,8.99-.13,17.99-.51,26.98-.15,3.58-.34,7.15-.56,10.73-.11,1.74-.02,2.84.04,4.26-10.23,0-20.46.02-30.7.03Z"/>
      <path class="cls-11" d="M1218.22,5.67c.42,2.94.81,5.88,1.17,8.82.29,2.78.56,5.56.8,8.34.04.37.08.73.12,1.1,2.01,19.84,2.8,39.68,2.36,59.51-.11,12.28-.39,18.11-.22,20.78-12.99,7.41-27.43,11.37-41.81,11.38-13.61.01-24.01-4.07-30.23-11.96-5.48-6.94-8.46-16.56-8.42-26.66.13-22.56,14.3-39.75,34.73-39.72,5.38,0,10.84,1.11,16.24,3.64-1.09-11.82-2.59-23.64-4.49-35.45,9.66-1.87,19.29-3.74,28.9-5.61.3,1.94.59,3.88.86,5.83ZM1193.88,73.84c.16-6.93-5.08-12.29-11.73-12.29-7.31,0-12.2,5.99-12.23,14.66-.04,9.14,4.94,15.29,12.72,15.29,4.44,0,8.61-1.26,11.05-3.47.13-4.73.19-9.45.19-14.18Z"/>
      <path class="cls-9" d="M1285.6,62.68c-5.03-4.09-11.82-6.92-16.57-6.92-2.85,0-5.31,2.04-5.23,4.56.07,2.2,2.48,3.62,8.21,4.88,5.42,1.26,8.61,2.36,11.8,3.78,7.66,3.46,12.46,11.47,12.13,20.43-.57,15.55-15.64,27.2-33.95,27.22-11.87.02-23.72-4.69-32.55-12.87,4.48-5.72,8.86-11.44,13.13-17.16,6.81,5.98,12.83,8.8,19.18,8.8,3.01,0,4.98-1.42,5.07-3.46.09-2.36-2.08-3.77-8.7-5.5-4.41-1.1-7.24-2.04-9.29-2.99-7.38-3.46-12.03-11.49-12.26-20.61-.18-7.87,3.05-15.58,8.87-20.61,4.79-4.09,11.88-6.12,20.9-6.11,11.07.01,20.07,3.01,30.2,9.77-3.54,5.6-7.19,11.2-10.96,16.81Z"/>
    </g>
  </g>
</svg>